<?xml version="1.0" encoding="UTF-8" standalone="no"?><!DOCTYPE svg PUBLIC "-//W3C//DTD SVG 1.1//EN" "http://www.w3.org/Graphics/SVG/1.1/DTD/svg11.dtd"><svg width="100%" height="100%" viewBox="0 0 414 96" version="1.1" xmlns="http://www.w3.org/2000/svg" xmlns:xlink="http://www.w3.org/1999/xlink" xml:space="preserve" style="fill-rule:evenodd;clip-rule:evenodd;stroke-linejoin:round;stroke-miterlimit:1.41421;"><rect x="0" y="0" width="414" height="96" style="fill:#312c54;"/><g><path d="M20.264,25.697c-0.038,-0.139 -0.037,-0.29 0.01,-0.432c0.026,-0.079 0.065,-0.153 0.115,-0.219c0.075,-0.099 0.175,-0.178 0.288,-0.23c0.038,-0.017 0.078,-0.027 0.117,-0.041l25.528,-6.75c0.121,-0.022 0.121,-0.022 0.244,-0.023c0.04,0.006 0.08,0.012 0.121,0.018l28.5,6.75l0.016,0.005c0.044,0.011 0.074,0.019 0.134,0.048c0.024,0.012 0.048,0.025 0.071,0.039l0.007,0.004c0.07,0.044 0.132,0.1 0.184,0.165c0.028,0.034 0.052,0.071 0.073,0.11c0.026,0.047 0.047,0.098 0.062,0.151c0.019,0.066 0.023,0.097 0.026,0.145c0.001,0.012 0.002,0.024 0.002,0.036l0.002,0.027l0,36c-0.007,0.097 -0.004,0.122 -0.032,0.216c-0.052,0.175 -0.17,0.328 -0.326,0.423c-0.083,0.051 -0.109,0.055 -0.2,0.086l-25.5,6.75l-0.007,0.002c-0.029,0.007 -0.059,0.013 -0.088,0.017l-0.009,0.001c-0.012,0.001 -0.024,0.002 -0.036,0.003l-0.001,0l-0.001,0l-0.001,0l-0.003,0.001c-0.048,0.003 -0.078,0.002 -0.108,-0.002c-0.02,-0.001 -0.04,-0.004 -0.06,-0.007c-0.017,-0.003 -0.033,-0.006 -0.05,-0.01l-0.001,0l-28.5,-6.75c-0.094,-0.03 -0.12,-0.033 -0.206,-0.083c-0.161,-0.094 -0.283,-0.249 -0.338,-0.427c-0.029,-0.095 -0.026,-0.122 -0.033,-0.22l0,-35.803Zm1.5,35.21l27,6.395l0,-34.459l-27,-6.388l0,34.452Zm52.5,-34.433l-24,6.353l0,34.449l24,-6.353l0,-34.449Zm-50.179,-1.017l25.419,6.02l22.426,-5.937l-25.406,-6.017l-22.439,5.934Z" style="fill:#6257a8;"/><path d="M46.93,77.422l2.574,0.609l1.15,-0.304l0.357,1.348l-1.319,0.349l-0.112,0.02c-0.114,0.002 -0.114,0.002 -0.227,-0.015l-1.387,-0.329l-1.357,-0.321c0.107,-0.452 0.214,-0.904 0.321,-1.357Zm-5.428,-1.284l4.071,0.963l-0.321,1.357l-2.714,-0.642l-1.357,-0.321c0.107,-0.452 0.214,-0.905 0.321,-1.357Zm10.5,1.232l1.348,-0.357l2.696,-0.713l0.357,1.348l-2.696,0.713l-1.348,0.357c-0.119,-0.449 -0.238,-0.899 -0.357,-1.348Zm-14.571,-2.195l-0.128,0.543l0.128,-0.543l2.714,0.642l-0.321,1.357l-2.714,-0.642l-1.357,-0.321l0.321,-1.358c0.452,0.108 0.905,0.215 1.357,0.322Zm19.963,0.768l1.348,-0.357l2.697,-0.714l0.356,1.348l-2.696,0.714l-1.348,0.357c-0.119,-0.45 -0.238,-0.899 -0.357,-1.348Zm-26.748,-2.374l4.071,0.963l-0.321,1.357l-2.714,-0.642l-1.357,-0.321c0.107,-0.452 0.214,-0.905 0.321,-1.357Zm32.141,0.946l1.348,-0.356l2.696,-0.714l0.357,1.348l-2.696,0.714l-1.349,0.356c-0.119,-0.449 -0.237,-0.898 -0.356,-1.348Zm-36.212,-1.909l2.714,0.642l-0.321,1.357l-2.714,-0.642l0.226,-0.954l-0.226,0.954l-1.357,-0.321l0.321,-1.357c0.452,0.107 0.904,0.214 1.357,0.321Zm41.604,0.482l1.348,-0.357l2.621,-0.694l-0.093,-0.022l0.321,-1.357l2.799,0.664c0.036,0.011 0.074,0.02 0.109,0.035c0.107,0.045 0.202,0.117 0.274,0.207c0.048,0.06 0.086,0.128 0.112,0.201c0.093,0.258 0.022,0.554 -0.178,0.742c-0.056,0.053 -0.121,0.097 -0.191,0.128c-0.035,0.016 -0.072,0.026 -0.109,0.039l-1.264,0.335l-0.155,-0.586l-1.539,-0.365l0.346,1.308l-4.044,1.07c-0.119,-0.449 -0.238,-0.899 -0.357,-1.348Zm-1.23,-3.716l4.07,0.965l-0.321,1.357l-1.357,-0.322l-2.714,-0.643c0.107,-0.452 0.214,-0.904 0.322,-1.357Zm-43.088,2.592l-0.321,1.357l-2.714,-0.642l0.16,-0.679l-0.178,-0.674l1.181,-0.313l0.144,0.542l1.539,0.364l-0.335,-1.263l2.697,-0.713l1.348,-0.357l0.357,1.348c-1.295,0.343 -2.59,0.684 -3.885,1.028c-0.002,0.001 0.005,0.001 0.007,0.002Zm37.66,-3.878l4.071,0.965l-0.322,1.357l-1.357,-0.322l-2.714,-0.643c0.108,-0.452 0.215,-0.905 0.322,-1.357Zm-32.791,1.143l2.696,-0.713l1.348,-0.357l0.357,1.348l-1.348,0.357l-2.696,0.713c-0.119,-0.449 -0.238,-0.898 -0.357,-1.348Zm9.793,-1.149l-1.348,0.357l-0.19,-0.72l0.19,0.72l-2.696,0.713l-0.357,-1.348l2.696,-0.713c0,0 0.899,-0.238 1.349,-0.357c0.118,0.449 0.237,0.898 0.356,1.348Zm17.57,-1.28l4.071,0.965l-0.322,1.356l-1.357,-0.321l-2.713,-0.643c0.107,-0.452 0.214,-0.905 0.321,-1.357Zm-8.113,0.372c0,0 0.905,0.215 1.357,0.323l-0.322,1.356l-1.357,-0.322l0.173,-0.727l-0.173,0.727l-2.714,-0.645l0.323,-1.357c0.904,0.215 1.809,0.43 2.713,0.645Zm2.369,0.134l2.698,-0.709l0.869,-0.229c0.099,-0.017 0.124,-0.028 0.226,-0.021c0.038,0.003 0.075,0.011 0.112,0.017l0.482,0.114l-0.321,1.357l-0.313,-0.074l-0.701,0.185l-2.697,0.709c-0.119,-0.45 -0.237,-0.9 -0.355,-1.349Zm-8.246,-1.53l1.807,0.429l-0.322,1.357l-1.357,-0.323l0.212,-0.892l-0.212,0.892l-0.28,-0.066l-2.08,0.55l-0.356,-1.348l2.248,-0.595c0.113,-0.02 0.112,-0.02 0.227,-0.022c0.037,0.006 0.075,0.012 0.113,0.018Z" style="fill:#6257a8;fill-rule:nonzero;"/></g><g transform="matrix(7.11954,0,0,7.11954,-1251.93,-3758.17)"><text x="191.119px" y="538.91px" style="font-family:'Code-Pro-Light-Demo', 'Code Pro Light Demo';font-weight:300;font-size:12px;fill:#6257a8;">Ba<tspan x="205.759px " y="538.91px ">s</tspan>e</text><text x="218.779px" y="538.91px" style="font-family:'LucidaGrande', 'Lucida Grande', sans-serif;font-weight:500;font-size:12px;fill:#6257a8;">-</text><text x="225.722px" y="538.91px" style="font-family:'Code-Pro-Light-Demo', 'Code Pro Light Demo';font-weight:300;font-size:12px;fill:#6257a8;">L</text></g></svg>