<?xml version="1.0" encoding="UTF-8" standalone="no"?>
<!DOCTYPE svg PUBLIC "-//W3C//DTD SVG 1.1//EN" "http://www.w3.org/Graphics/SVG/1.1/DTD/svg11.dtd">
<svg width="100%" height="100%" viewBox="0 0 75 82" version="1.1" xmlns="http://www.w3.org/2000/svg" xmlns:xlink="http://www.w3.org/1999/xlink" xml:space="preserve" style="fill-rule:evenodd;clip-rule:evenodd;stroke-linejoin:round;stroke-miterlimit:1.41421;">
    <g>
        <path d="M0.036,10.261c-0.051,-0.187 -0.049,-0.388 0.013,-0.576c0.035,-0.105 0.087,-0.204 0.154,-0.292c0.1,-0.132 0.233,-0.238 0.384,-0.307c0.051,-0.022 0.104,-0.037 0.156,-0.055l34.037,-9c0.161,-0.029 0.161,-0.029 0.325,-0.031c0.054,0.008 0.108,0.016 0.161,0.025l38,9l0.022,0.006c0.059,0.014 0.099,0.026 0.178,0.064c0.033,0.016 0.065,0.033 0.096,0.052l0.008,0.005c0.094,0.06 0.177,0.134 0.246,0.22c0.037,0.046 0.07,0.095 0.097,0.146c0.035,0.064 0.063,0.132 0.084,0.202c0.025,0.088 0.03,0.129 0.034,0.193c0.001,0.016 0.002,0.032 0.003,0.048l0.002,0.037l0,48c-0.009,0.128 -0.005,0.163 -0.042,0.287c-0.07,0.234 -0.227,0.437 -0.435,0.565c-0.111,0.068 -0.145,0.072 -0.267,0.114l-34,9l-0.01,0.002c-0.038,0.01 -0.077,0.018 -0.117,0.023l-0.011,0.002c-0.016,0.002 -0.032,0.003 -0.048,0.004l-0.002,0l-0.002,0l-0.001,0l-0.004,0.001c-0.063,0.004 -0.104,0.003 -0.144,-0.002c-0.027,-0.002 -0.053,-0.005 -0.08,-0.01c-0.022,-0.003 -0.044,-0.008 -0.066,-0.013l-0.001,0l-38,-9c-0.126,-0.04 -0.161,-0.043 -0.275,-0.111c-0.215,-0.125 -0.378,-0.331 -0.451,-0.569c-0.039,-0.127 -0.034,-0.162 -0.044,-0.293l0,-47.737ZM2.036,57.207l36,8.526l0,-45.944l-36,-8.518l0,45.936ZM72.036,11.297l-32,8.47l0,45.931l32,-8.47l0,-45.931ZM5.13,9.94l33.893,8.027l29.902,-7.915l-33.876,-8.024l-29.919,7.912Z" style="fill:#654d9d;"/>
        <path d="M35.591,79.227l3.432,0.812l1.533,-0.405l0.476,1.797l-1.758,0.465l-0.15,0.027c-0.152,0.002 -0.152,0.002 -0.302,-0.021l-1.849,-0.437l-1.81,-0.428c0.143,-0.603 0.286,-1.207 0.428,-1.81ZM28.354,77.515l5.428,1.284l-0.428,1.81l-3.619,-0.857l-1.809,-0.428c0.142,-0.603 0.285,-1.206 0.428,-1.809ZM42.353,79.158l1.798,-0.476l3.595,-0.952l0.476,1.798l-3.595,0.951l-1.798,0.476c-0.158,-0.599 -0.317,-1.198 -0.476,-1.797ZM22.926,76.23l-0.172,0.725l0.172,-0.725l3.619,0.857l-0.429,1.809l-3.618,-0.856l-1.81,-0.428l0.428,-1.81c0.603,0.143 1.207,0.286 1.81,0.428ZM49.543,77.255l1.798,-0.476l3.595,-0.952l0.475,1.798l-3.595,0.951l-1.797,0.476c-0.159,-0.599 -0.317,-1.198 -0.476,-1.797ZM13.879,74.09l5.428,1.284l-0.428,1.81l-3.619,-0.857l-1.809,-0.428c0.142,-0.603 0.285,-1.206 0.428,-1.809ZM56.733,75.351l1.797,-0.475l3.595,-0.952l0.476,1.798l-3.595,0.951l-1.797,0.476c-0.159,-0.599 -0.317,-1.198 -0.476,-1.798ZM8.451,72.805l3.618,0.857l-0.428,1.809l-3.619,-0.856l0.302,-1.272l-0.302,1.272l-1.809,-0.428l0.428,-1.81c0.603,0.143 1.206,0.286 1.81,0.428ZM63.923,73.448l1.797,-0.476l3.495,-0.925l-0.124,-0.029l0.428,-1.809l3.731,0.884c0.049,0.016 0.099,0.028 0.147,0.048c0.142,0.06 0.268,0.155 0.364,0.275c0.065,0.081 0.115,0.171 0.15,0.268c0.124,0.344 0.029,0.739 -0.237,0.99c-0.075,0.071 -0.161,0.128 -0.255,0.171c-0.047,0.021 -0.097,0.034 -0.145,0.051l-1.686,0.447l-0.207,-0.782l-2.052,-0.486l0.462,1.743l-5.392,1.428c-0.159,-0.599 -0.318,-1.199 -0.476,-1.798ZM62.282,68.494l5.428,1.286l-0.429,1.809l-1.809,-0.428l-3.618,-0.858c0.143,-0.603 0.285,-1.206 0.428,-1.809ZM4.832,71.949l-0.428,1.81l-3.619,-0.857l0.214,-0.904l-0.238,-0.899l1.576,-0.417l0.191,0.722l2.052,0.486l-0.446,-1.684l3.595,-0.951l1.798,-0.476l0.475,1.797c-1.726,0.457 -3.453,0.912 -5.179,1.371c-0.003,0.001 0.006,0.002 0.009,0.002ZM55.045,66.779l5.428,1.286l-0.429,1.809l-1.809,-0.428l-3.618,-0.858c0.143,-0.603 0.285,-1.206 0.428,-1.809ZM11.324,68.303l3.595,-0.951l1.797,-0.476l0.476,1.798l-1.797,0.475l-3.595,0.952c-0.159,-0.599 -0.317,-1.199 -0.476,-1.798ZM24.382,66.771l-1.798,0.475l-0.253,-0.959l0.253,0.959l-3.594,0.952l-0.476,-1.798l3.595,-0.951c0,0 1.198,-0.317 1.797,-0.476c0.159,0.599 0.317,1.199 0.476,1.798ZM47.808,65.064l5.428,1.286l-0.429,1.81l-1.809,-0.429l-3.618,-0.858c0.143,-0.603 0.285,-1.206 0.428,-1.809ZM36.991,65.561c0,0 1.206,0.286 1.809,0.429l-0.43,1.809l-1.809,-0.429l0.231,-0.97l-0.231,0.97l-3.618,-0.86l0.43,-1.809c1.206,0.286 2.412,0.573 3.618,0.86ZM40.15,65.739l3.596,-0.946l1.16,-0.304c0.132,-0.024 0.165,-0.038 0.301,-0.029c0.05,0.004 0.1,0.016 0.149,0.023l0.643,0.152l-0.429,1.81l-0.416,-0.099l-0.935,0.246l-3.597,0.945c-0.157,-0.599 -0.315,-1.199 -0.472,-1.798ZM29.154,63.698l2.41,0.573l-0.43,1.809l-1.809,-0.43l0.283,-1.19l-0.283,1.19l-0.373,-0.089l-2.773,0.734l-0.475,-1.797l2.997,-0.794c0.151,-0.027 0.15,-0.027 0.303,-0.029c0.05,0.008 0.1,0.016 0.15,0.023Z" style="fill:#654d9d;fill-rule:nonzero;"/>
    </g>
</svg>
