<?xml version="1.0" encoding="UTF-8" standalone="no"?>
<!DOCTYPE svg PUBLIC "-//W3C//DTD SVG 1.1//EN" "http://www.w3.org/Graphics/SVG/1.1/DTD/svg11.dtd">
<svg width="100%" height="100%" viewBox="0 0 199 33" version="1.1" xmlns="http://www.w3.org/2000/svg" xmlns:xlink="http://www.w3.org/1999/xlink" xml:space="preserve" style="fill-rule:evenodd;clip-rule:evenodd;stroke-linejoin:round;stroke-miterlimit:1.41421;">
    <g id="Artboard1" transform="matrix(1,0,0,1,-26.9825,-19.7849)">
        <rect x="26.982" y="19.785" width="198.369" height="32.461" style="fill:none;"/>
        <clipPath id="_clip1">
            <rect x="26.982" y="19.785" width="198.369" height="32.461"/>
        </clipPath>
        <g clip-path="url(#_clip1)">
            <g transform="matrix(0.186384,-4.7843e-19,-1.10268e-18,0.439359,19.5313,-46.601)">
                <g transform="matrix(2.1338,2.32355e-18,5.35528e-18,0.905195,-17.5976,14.4104)">
                    <path d="M27.019,161.263C26.968,161.077 26.97,160.876 27.032,160.687C27.066,160.582 27.118,160.483 27.185,160.395C27.286,160.263 27.419,160.157 27.57,160.089C27.62,160.066 27.674,160.052 27.726,160.033L61.763,151.033C61.924,151.004 61.924,151.004 62.087,151.002C62.141,151.011 62.195,151.019 62.249,151.027L100.249,160.027L100.27,160.034C100.329,160.048 100.369,160.059 100.449,160.097C100.482,160.113 100.514,160.13 100.544,160.15L100.553,160.155C100.646,160.214 100.73,160.288 100.799,160.375C100.836,160.421 100.868,160.47 100.896,160.521C100.931,160.584 100.959,160.652 100.979,160.722C101.005,160.81 101.009,160.851 101.013,160.915C101.015,160.932 101.016,160.948 101.016,160.964L101.019,161L101.019,209C101.009,209.129 101.014,209.163 100.976,209.287C100.906,209.521 100.75,209.725 100.541,209.852C100.431,209.92 100.396,209.925 100.274,209.967L66.274,218.967L66.265,218.969C66.226,218.979 66.187,218.986 66.148,218.991L66.136,218.993C66.12,218.995 66.104,218.996 66.088,218.998L66.086,218.998L66.085,218.998L66.084,218.998L66.08,218.998C66.016,219.002 65.976,219.001 65.935,218.996C65.909,218.994 65.882,218.991 65.856,218.987C65.834,218.983 65.812,218.979 65.79,218.973L65.788,218.973L27.788,209.973C27.663,209.933 27.628,209.93 27.513,209.863C27.298,209.737 27.135,209.531 27.062,209.293C27.024,209.166 27.028,209.131 27.019,209L27.019,161.263ZM29.019,208.209L65.019,216.735L65.019,170.791L29.019,162.273L29.019,208.209ZM99.019,162.299L67.019,170.77L67.019,216.701L99.019,208.23L99.019,162.299ZM32.113,160.942L66.005,168.969L95.907,161.054L62.032,153.031L32.113,160.942Z" style="fill:rgb(98,87,168);"/>
                </g>
                <g transform="matrix(2.1338,2.32355e-18,5.35528e-18,0.905195,25.1178,14.4104)">
                    <path d="M42.555,230.23L45.987,231.042L47.52,230.636L47.996,232.433L46.238,232.899L46.088,232.925C45.936,232.927 45.936,232.928 45.786,232.905L43.937,232.467L42.127,232.039C42.27,231.436 42.413,230.833 42.555,230.23ZM35.318,228.517L40.746,229.802L40.318,231.611L36.699,230.755L34.89,230.327C35.032,229.723 35.175,229.12 35.318,228.517ZM49.317,230.16L51.115,229.684L54.71,228.733L55.186,230.53L51.591,231.482L49.793,231.958C49.635,231.358 49.476,230.759 49.317,230.16ZM29.89,227.233L29.718,227.958L29.89,227.233L33.508,228.089L33.08,229.898L29.462,229.042L27.652,228.614L28.08,226.805C28.683,226.947 29.287,227.09 29.89,227.233ZM56.507,228.257L58.305,227.781L61.9,226.83L62.375,228.627L58.78,229.579L56.983,230.054C56.824,229.455 56.666,228.856 56.507,228.257ZM20.843,225.092L26.271,226.377L25.843,228.186L22.224,227.33L20.415,226.902C20.557,226.298 20.7,225.695 20.843,225.092ZM63.697,226.354L65.494,225.878L69.089,224.926L69.565,226.724L65.97,227.675L64.173,228.151C64.014,227.552 63.856,226.953 63.697,226.354ZM15.415,223.808L19.033,224.664L18.605,226.473L14.986,225.617L15.287,224.345L14.986,225.617L13.177,225.189L13.605,223.38C14.208,223.522 14.811,223.665 15.415,223.808ZM70.887,224.451L72.684,223.975L76.179,223.05L76.055,223.021L76.483,221.211L80.214,222.095C80.263,222.111 80.313,222.123 80.361,222.143C80.503,222.203 80.629,222.298 80.725,222.419C80.79,222.499 80.84,222.589 80.875,222.686C80.999,223.031 80.904,223.426 80.638,223.677C80.563,223.747 80.477,223.805 80.383,223.847C80.336,223.868 80.286,223.882 80.238,223.899L78.552,224.345L78.345,223.563L76.293,223.077L76.755,224.821L71.363,226.248C71.204,225.649 71.045,225.05 70.887,224.451ZM69.246,219.496L74.674,220.783L74.245,222.592L72.436,222.163L68.818,221.306C68.96,220.703 69.103,220.099 69.246,219.496ZM11.796,222.952L11.368,224.761L7.749,223.905L7.963,223L7.725,222.101L9.301,221.684L9.492,222.406L11.544,222.892L11.098,221.209L14.693,220.257L16.491,219.781L16.966,221.579C15.24,222.036 13.513,222.491 11.787,222.95C11.784,222.95 11.793,222.951 11.796,222.952ZM62.009,217.781L67.437,219.068L67.008,220.877L65.199,220.448L61.581,219.591C61.724,218.988 61.866,218.385 62.009,217.781ZM18.288,219.306L21.883,218.354L23.68,217.879L24.156,219.676L22.359,220.152L18.764,221.103C18.605,220.504 18.447,219.905 18.288,219.306ZM31.346,217.773L29.548,218.249L29.295,217.289L29.548,218.249L25.954,219.2L25.478,217.403L29.073,216.451C29.073,216.451 30.271,216.134 30.87,215.976C31.029,216.575 31.187,217.174 31.346,217.773ZM54.772,216.067L60.2,217.353L59.771,219.162L57.962,218.733L54.344,217.876C54.487,217.273 54.629,216.67 54.772,216.067ZM43.955,216.563C43.955,216.563 45.161,216.85 45.764,216.993L45.334,218.802L43.525,218.372L43.756,217.403L43.525,218.372L39.907,217.512L40.337,215.703C41.543,215.99 42.749,216.276 43.955,216.563ZM47.114,216.741L50.71,215.796L51.87,215.491C52.002,215.468 52.035,215.453 52.171,215.463C52.221,215.466 52.27,215.478 52.32,215.486L52.963,215.638L52.534,217.447L52.118,217.348L51.183,217.594L47.586,218.539C47.429,217.94 47.271,217.341 47.114,216.741ZM36.118,214.701L38.528,215.273L38.098,217.082L36.289,216.653L36.572,215.463L36.289,216.653L35.915,216.564L33.143,217.297L32.668,215.5L35.665,214.707C35.816,214.68 35.815,214.68 35.968,214.678C36.018,214.685 36.068,214.693 36.118,214.701Z" style="fill:rgb(98,87,168);fill-rule:nonzero;"/>
                </g>
            </g>
            <g transform="matrix(3.77531,0,0,3.77531,-647.614,-1982.62)">
                <text x="191.119px" y="538.91px" style="font-family:'Code-Pro-Light-Demo', 'Code Pro Light Demo';font-weight:300;font-size:12px;fill:rgb(98,87,168);">Ba<tspan x="205.759px " y="538.91px ">s</tspan>e</text>
                <text x="218.779px" y="538.91px" style="font-family:'LucidaGrande', 'Lucida Grande', sans-serif;font-weight:500;font-size:12px;fill:rgb(98,87,168);">-</text>
                <text x="225.722px" y="538.91px" style="font-family:'Code-Pro-Light-Demo', 'Code Pro Light Demo';font-weight:300;font-size:12px;fill:rgb(98,87,168);">L</text>
            </g>
        </g>
    </g>
</svg>
