<?xml version="1.0" encoding="UTF-8" standalone="no"?>
<svg width="52px" height="46px" viewBox="0 0 52 46" version="1.1" xmlns="http://www.w3.org/2000/svg" xmlns:xlink="http://www.w3.org/1999/xlink" xmlns:sketch="http://www.bohemiancoding.com/sketch/ns">
    <!-- Generator: Sketch 3.2.2 (9983) - http://www.bohemiancoding.com/sketch -->
    <title>31 - Wind (Flat)</title>
    <desc>Created with Sketch.</desc>
    <defs></defs>
    <g id="Page-1" stroke="none" stroke-width="1" fill="none" fill-rule="evenodd" sketch:type="MSPage">
        <g id="31---Wind-(Flat)" sketch:type="MSLayerGroup" transform="translate(0.000000, -1.000000)" fill="#E4ECF4">
            <path d="M30,41 L29.995,41 L14.511,41.074 C14.383,41.074 14.255,41.068 14.122,41.055 L13.394,40.984 C7.005,40.666 2,35.402 2,29 C2,22.383 7.383,17 14,17 L40,17 C44.411,17 48,13.411 48,9 L48,7.515 C48,4.187 45.619,1.403 42.461,1.042 C41.595,0.942 40.73,1.018 39.89,1.266 C36.451,2.277 34.477,5.898 35.488,9.336 C35.645,9.865 36.2,10.174 36.729,10.013 C37.26,9.857 37.562,9.301 37.406,8.771 C36.706,6.391 38.073,3.885 40.453,3.185 C41.037,3.013 41.637,2.962 42.233,3.028 C44.346,3.271 46,5.241 46,7.515 L46,9 C46,12.309 43.309,15 40,15 L14,15 C6.28,15 0,21.28 0,29 C0,36.469 5.84,42.61 13.247,42.979 L13.923,43.045 C14.118,43.065 14.314,43.074 14.516,43.074 L30.005,43 C30.557,42.997 31.003,42.548 31,41.995 C30.997,41.444 30.55,41 30,41" id="Fill-249" sketch:type="MSShapeGroup"></path>
            <path d="M43.097,31.098 L15.098,31.102 L14,31 C12.897,31 12,30.102 12,29 C12,27.898 12.897,27 14,27 L40,27 C40.553,27 41,26.553 41,26 C41,25.447 40.553,25 40,25 L14,25 C11.794,25 10,26.794 10,29 C10,31.203 11.79,32.995 13.895,32.995 L13.902,32.995 L15,33.098 L43.097,33.098 C46.903,33.098 50,36.194 50,40 C50,40.089 50.029,40.168 50.051,40.25 C50.029,40.332 50,40.411 50,40.5 C50,42.981 47.981,45 45.5,45 C43.019,45 41,42.981 41,40.5 C41,39.947 40.553,39.5 40,39.5 C39.447,39.5 39,39.947 39,40.5 C39,44.084 41.916,47 45.5,47 C49.084,47 52,44.084 52,40.5 C52,40.411 51.971,40.332 51.95,40.25 C51.971,40.168 52,40.089 52,40 C52,35.091 48.006,31.098 43.097,31.098" id="Fill-250" sketch:type="MSShapeGroup"></path>
            <path d="M40,20 L14,20 C9.037,20 5,24.037 5,29 C5,33.863 8.805,37.813 13.602,37.989 L14.513,38.074 L43.097,38.098 L43.098,38.098 C43.649,38.098 44.098,37.65 44.098,37.099 C44.098,36.546 43.65,36.098 43.099,36.098 L14.611,36.079 L13.736,35.995 C9.959,35.854 7,32.782 7,29 C7,25.141 10.141,22 14,22 L40,22 C46.617,22 52,16.617 52,10 C52,9.447 51.553,9 51,9 C50.447,9 50,9.447 50,10 C50,15.514 45.514,20 40,20" id="Fill-251" sketch:type="MSShapeGroup"></path>
        </g>
    </g>
</svg>