<?xml version="1.0" encoding="UTF-8" standalone="no"?>
<svg width="58px" height="58px" viewBox="0 0 58 58" version="1.1" xmlns="http://www.w3.org/2000/svg" xmlns:xlink="http://www.w3.org/1999/xlink" xmlns:sketch="http://www.bohemiancoding.com/sketch/ns">
    <!-- Generator: Sketch 3.2.2 (9983) - http://www.bohemiancoding.com/sketch -->
    <title>55 - Coding App (Flat)</title>
    <desc>Created with Sketch.</desc>
    <defs></defs>
    <g id="Page-1" stroke="none" stroke-width="1" fill="none" fill-rule="evenodd" sketch:type="MSPage">
        <g id="55---Coding-App-(Flat)" sketch:type="MSLayerGroup">
            <path d="M0,0 L58,0 L58,58 L0,58 L0,0 Z" id="Fill-183" fill="#ECF0F1" sketch:type="MSShapeGroup"></path>
            <path d="M0,0 L58,0 L58,12 L0,12 L0,0 Z" id="Fill-184" fill="#546A79" sketch:type="MSShapeGroup"></path>
            <path d="M9,6 C9,7.657 7.657,9 6,9 C4.343,9 3,7.657 3,6 C3,4.343 4.343,3 6,3 C7.657,3 9,4.343 9,6" id="Fill-185" fill="#ED7161" sketch:type="MSShapeGroup"></path>
            <path d="M18,6 C18,7.657 16.657,9 15,9 C13.343,9 12,7.657 12,6 C12,4.343 13.343,3 15,3 C16.657,3 18,4.343 18,6" id="Fill-186" fill="#F0C419" sketch:type="MSShapeGroup"></path>
            <path d="M27,6 C27,7.657 25.657,9 24,9 C22.343,9 21,7.657 21,6 C21,4.343 22.343,3 24,3 C25.657,3 27,4.343 27,6" id="Fill-187" fill="#4FBA6F" sketch:type="MSShapeGroup"></path>
            <path d="M0,12 L7,12 L7,58 L0,58 L0,12 Z" id="Fill-309" fill="#95A5A5" sketch:type="MSShapeGroup"></path>
            <path d="M3,18 L4,18 C4.553,18 5,17.553 5,17 C5,16.447 4.553,16 4,16 L3,16 C2.447,16 2,16.447 2,17 C2,17.553 2.447,18 3,18" id="Fill-310" fill="#BDC3C7" sketch:type="MSShapeGroup"></path>
            <path d="M4,20 L3,20 C2.447,20 2,20.447 2,21 C2,21.553 2.447,22 3,22 L4,22 C4.553,22 5,21.553 5,21 C5,20.447 4.553,20 4,20" id="Fill-311" fill="#BDC3C7" sketch:type="MSShapeGroup"></path>
            <path d="M4,24 L3,24 C2.447,24 2,24.447 2,25 C2,25.553 2.447,26 3,26 L4,26 C4.553,26 5,25.553 5,25 C5,24.447 4.553,24 4,24" id="Fill-312" fill="#BDC3C7" sketch:type="MSShapeGroup"></path>
            <path d="M4,28 L3,28 C2.447,28 2,28.447 2,29 C2,29.553 2.447,30 3,30 L4,30 C4.553,30 5,29.553 5,29 C5,28.447 4.553,28 4,28" id="Fill-313" fill="#BDC3C7" sketch:type="MSShapeGroup"></path>
            <path d="M4,32 L3,32 C2.447,32 2,32.447 2,33 C2,33.553 2.447,34 3,34 L4,34 C4.553,34 5,33.553 5,33 C5,32.447 4.553,32 4,32" id="Fill-314" fill="#BDC3C7" sketch:type="MSShapeGroup"></path>
            <path d="M4,36 L3,36 C2.447,36 2,36.447 2,37 C2,37.553 2.447,38 3,38 L4,38 C4.553,38 5,37.553 5,37 C5,36.447 4.553,36 4,36" id="Fill-315" fill="#BDC3C7" sketch:type="MSShapeGroup"></path>
            <path d="M4,40 L3,40 C2.447,40 2,40.447 2,41 C2,41.553 2.447,42 3,42 L4,42 C4.553,42 5,41.553 5,41 C5,40.447 4.553,40 4,40" id="Fill-316" fill="#BDC3C7" sketch:type="MSShapeGroup"></path>
            <path d="M4,44 L3,44 C2.447,44 2,44.447 2,45 C2,45.553 2.447,46 3,46 L4,46 C4.553,46 5,45.553 5,45 C5,44.447 4.553,44 4,44" id="Fill-317" fill="#BDC3C7" sketch:type="MSShapeGroup"></path>
            <path d="M4,48 L3,48 C2.447,48 2,48.447 2,49 C2,49.553 2.447,50 3,50 L4,50 C4.553,50 5,49.553 5,49 C5,48.447 4.553,48 4,48" id="Fill-318" fill="#BDC3C7" sketch:type="MSShapeGroup"></path>
            <path d="M4,52 L3,52 C2.447,52 2,52.447 2,53 C2,53.553 2.447,54 3,54 L4,54 C4.553,54 5,53.553 5,53 C5,52.447 4.553,52 4,52" id="Fill-319" fill="#BDC3C7" sketch:type="MSShapeGroup"></path>
            <path d="M25,18 L12,18 C11.447,18 11,17.553 11,17 C11,16.447 11.447,16 12,16 L25,16 C25.553,16 26,16.447 26,17 C26,17.553 25.553,18 25,18" id="Fill-324" fill="#8697CB" sketch:type="MSShapeGroup"></path>
            <path d="M39,18 L29,18 C28.447,18 28,17.553 28,17 C28,16.447 28.447,16 29,16 L39,16 C39.553,16 40,16.447 40,17 C40,17.553 39.553,18 39,18" id="Fill-325" fill="#F0C419" sketch:type="MSShapeGroup"></path>
            <path d="M45,18 L43,18 C42.447,18 42,17.553 42,17 C42,16.447 42.447,16 43,16 L45,16 C45.553,16 46,16.447 46,17 C46,17.553 45.553,18 45,18" id="Fill-326" fill="#4FBA6F" sketch:type="MSShapeGroup"></path>
            <path d="M50,22 L35,22 C34.447,22 34,21.553 34,21 C34,20.447 34.447,20 35,20 L50,20 C50.553,20 51,20.447 51,21 C51,21.553 50.553,22 50,22" id="Fill-327" fill="#8697CB" sketch:type="MSShapeGroup"></path>
            <path d="M31,22 L17,22 C16.447,22 16,21.553 16,21 C16,20.447 16.447,20 17,20 L31,20 C31.553,20 32,20.447 32,21 C32,21.553 31.553,22 31,22" id="Fill-328" fill="#E64C3C" sketch:type="MSShapeGroup"></path>
            <path d="M13,22 L12,22 C11.447,22 11,21.553 11,21 C11,20.447 11.447,20 12,20 L13,20 C13.553,20 14,20.447 14,21 C14,21.553 13.553,22 13,22" id="Fill-329" fill="#E64C3C" sketch:type="MSShapeGroup"></path>
            <path d="M21,26 L12,26 C11.447,26 11,25.553 11,25 C11,24.447 11.447,24 12,24 L21,24 C21.553,24 22,24.447 22,25 C22,25.553 21.553,26 21,26" id="Fill-330" fill="#8697CB" sketch:type="MSShapeGroup"></path>
            <path d="M27,26 L25,26 C24.447,26 24,25.553 24,25 C24,24.447 24.447,24 25,24 L27,24 C27.553,24 28,24.447 28,25 C28,25.553 27.553,26 27,26" id="Fill-331" fill="#F0C419" sketch:type="MSShapeGroup"></path>
            <path d="M45,26 L31,26 C30.447,26 30,25.553 30,25 C30,24.447 30.447,24 31,24 L45,24 C45.553,24 46,24.447 46,25 C46,25.553 45.553,26 45,26" id="Fill-332" fill="#4FBA6F" sketch:type="MSShapeGroup"></path>
            <path d="M25,30 L12,30 C11.447,30 11,29.553 11,29 C11,28.447 11.447,28 12,28 L25,28 C25.553,28 26,28.447 26,29 C26,29.553 25.553,30 25,30" id="Fill-333" fill="#F0C419" sketch:type="MSShapeGroup"></path>
            <path d="M39,30 L29,30 C28.447,30 28,29.553 28,29 C28,28.447 28.447,28 29,28 L39,28 C39.553,28 40,28.447 40,29 C40,29.553 39.553,30 39,30" id="Fill-334" fill="#4FBA6F" sketch:type="MSShapeGroup"></path>
            <path d="M43,34 L35,34 C34.447,34 34,33.553 34,33 C34,32.447 34.447,32 35,32 L43,32 C43.553,32 44,32.447 44,33 C44,33.553 43.553,34 43,34" id="Fill-335" fill="#F0C419" sketch:type="MSShapeGroup"></path>
            <path d="M31,34 L17,34 C16.447,34 16,33.553 16,33 C16,32.447 16.447,32 17,32 L31,32 C31.553,32 32,32.447 32,33 C32,33.553 31.553,34 31,34" id="Fill-336" fill="#8697CB" sketch:type="MSShapeGroup"></path>
            <path d="M13,34 L12,34 C11.447,34 11,33.553 11,33 C11,32.447 11.447,32 12,32 L13,32 C13.553,32 14,32.447 14,33 C14,33.553 13.553,34 13,34" id="Fill-337" fill="#4FBA6F" sketch:type="MSShapeGroup"></path>
            <path d="M21,38 L12,38 C11.447,38 11,37.553 11,37 C11,36.447 11.447,36 12,36 L21,36 C21.553,36 22,36.447 22,37 C22,37.553 21.553,38 21,38" id="Fill-338" fill="#F0C419" sketch:type="MSShapeGroup"></path>
            <path d="M27,38 L25,38 C24.447,38 24,37.553 24,37 C24,36.447 24.447,36 25,36 L27,36 C27.553,36 28,36.447 28,37 C28,37.553 27.553,38 27,38" id="Fill-339" fill="#8697CB" sketch:type="MSShapeGroup"></path>
            <path d="M46,38 L31,38 C30.447,38 30,37.553 30,37 C30,36.447 30.447,36 31,36 L46,36 C46.553,36 47,36.447 47,37 C47,37.553 46.553,38 46,38" id="Fill-340" fill="#E64C3C" sketch:type="MSShapeGroup"></path>
            <path d="M25,42 L12,42 C11.447,42 11,41.553 11,41 C11,40.447 11.447,40 12,40 L25,40 C25.553,40 26,40.447 26,41 C26,41.553 25.553,42 25,42" id="Fill-341" fill="#8697CB" sketch:type="MSShapeGroup"></path>
            <path d="M39,42 L29,42 C28.447,42 28,41.553 28,41 C28,40.447 28.447,40 29,40 L39,40 C39.553,40 40,40.447 40,41 C40,41.553 39.553,42 39,42" id="Fill-342" fill="#4FBA6F" sketch:type="MSShapeGroup"></path>
            <path d="M50,42 L43,42 C42.447,42 42,41.553 42,41 C42,40.447 42.447,40 43,40 L50,40 C50.553,40 51,40.447 51,41 C51,41.553 50.553,42 50,42" id="Fill-343" fill="#E64C3C" sketch:type="MSShapeGroup"></path>
            <path d="M39,46 L35,46 C34.447,46 34,45.553 34,45 C34,44.447 34.447,44 35,44 L39,44 C39.553,44 40,44.447 40,45 C40,45.553 39.553,46 39,46" id="Fill-344" fill="#8697CB" sketch:type="MSShapeGroup"></path>
            <path d="M31,46 L17,46 C16.447,46 16,45.553 16,45 C16,44.447 16.447,44 17,44 L31,44 C31.553,44 32,44.447 32,45 C32,45.553 31.553,46 31,46" id="Fill-345" fill="#E64C3C" sketch:type="MSShapeGroup"></path>
            <path d="M13,46 L12,46 C11.447,46 11,45.553 11,45 C11,44.447 11.447,44 12,44 L13,44 C13.553,44 14,44.447 14,45 C14,45.553 13.553,46 13,46" id="Fill-346" fill="#F0C419" sketch:type="MSShapeGroup"></path>
            <path d="M21,50 L12,50 C11.447,50 11,49.553 11,49 C11,48.447 11.447,48 12,48 L21,48 C21.553,48 22,48.447 22,49 C22,49.553 21.553,50 21,50" id="Fill-347" fill="#4FBA6F" sketch:type="MSShapeGroup"></path>
            <path d="M27,50 L25,50 C24.447,50 24,49.553 24,49 C24,48.447 24.447,48 25,48 L27,48 C27.553,48 28,48.447 28,49 C28,49.553 27.553,50 27,50" id="Fill-348" fill="#8697CB" sketch:type="MSShapeGroup"></path>
            <path d="M38,50 L31,50 C30.447,50 30,49.553 30,49 C30,48.447 30.447,48 31,48 L38,48 C38.553,48 39,48.447 39,49 C39,49.553 38.553,50 38,50" id="Fill-349" fill="#E64C3C" sketch:type="MSShapeGroup"></path>
            <path d="M43,50 L42,50 C41.447,50 41,49.553 41,49 C41,48.447 41.447,48 42,48 L43,48 C43.553,48 44,48.447 44,49 C44,49.553 43.553,50 43,50" id="Fill-350" fill="#F0C419" sketch:type="MSShapeGroup"></path>
        </g>
    </g>
</svg>