<?xml version="1.0" encoding="UTF-8" standalone="no"?>
<svg width="50px" height="46px" viewBox="0 0 50 46" version="1.1" xmlns="http://www.w3.org/2000/svg" xmlns:xlink="http://www.w3.org/1999/xlink" xmlns:sketch="http://www.bohemiancoding.com/sketch/ns">
    <!-- Generator: Sketch 3.2.2 (9983) - http://www.bohemiancoding.com/sketch -->
    <title>69 - Windy (Flat)</title>
    <desc>Created with Sketch.</desc>
    <defs></defs>
    <g id="Page-1" stroke="none" stroke-width="1" fill="none" fill-rule="evenodd" sketch:type="MSPage">
        <g id="69---Windy-(Flat)" sketch:type="MSLayerGroup" fill="#E4ECF4">
            <path d="M31,18 C35.962,18 40,13.962 40,9 C40,4.038 35.962,0 31,0 C30.448,0 30,0.448 30,1 C30,1.552 30.448,2 31,2 C34.86,2 38,5.14 38,9 C38,12.86 34.86,16 31,16 L9,16 C4.038,16 0,20.038 0,25 C0,25.552 0.448,26 1,26 C1.552,26 2,25.552 2,25 C2,21.14 5.14,18 9,18 L31,18" id="Fill-113" sketch:type="MSShapeGroup"></path>
            <path d="M38,28 L18,28 C17.448,28 17,28.448 17,29 C17,29.552 17.448,30 18,30 L38,30 C41.86,30 45,33.14 45,37 C45,40.86 41.86,44 38,44 C37.448,44 37,44.448 37,45 C37,45.552 37.448,46 38,46 C42.962,46 47,41.962 47,37 C47,32.038 42.962,28 38,28" id="Fill-114" sketch:type="MSShapeGroup"></path>
            <path d="M27,10 C27.552,10 28,9.552 28,9 C28,7.346 29.346,6 31,6 C32.654,6 34,7.346 34,9 C34,10.654 32.654,12 31,12 C30.448,12 30,12.448 30,13 C30,13.552 30.448,14 31,14 C33.757,14 36,11.757 36,9 C36,6.243 33.757,4 31,4 C28.243,4 26,6.243 26,9 C26,9.552 26.448,10 27,10" id="Fill-115" sketch:type="MSShapeGroup"></path>
            <path d="M43,37 C43,34.243 40.757,32 38,32 C37.448,32 37,32.448 37,33 C37,33.552 37.448,34 38,34 C39.654,34 41,35.346 41,37 C41,38.654 39.654,40 38,40 C36.346,40 35,38.654 35,37 C35,36.448 34.552,36 34,36 C33.448,36 33,36.448 33,37 C33,39.757 35.243,42 38,42 C40.757,42 43,39.757 43,37" id="Fill-116" sketch:type="MSShapeGroup"></path>
            <path d="M32,32 L26,32 C25.448,32 25,32.448 25,33 C25,33.552 25.448,34 26,34 L32,34 C32.552,34 33,33.552 33,33 C33,32.448 32.552,32 32,32" id="Fill-117" sketch:type="MSShapeGroup"></path>
            <path d="M21,14 L27,14 C27.552,14 28,13.552 28,13 C28,12.448 27.552,12 27,12 L21,12 C20.448,12 20,12.448 20,13 C20,13.552 20.448,14 21,14" id="Fill-118" sketch:type="MSShapeGroup"></path>
            <path d="M41,21 C41,20.448 40.552,20 40,20 L9,20 C8.448,20 8,20.448 8,21 C8,21.552 8.448,22 9,22 L40,22 C40.552,22 41,21.552 41,21" id="Fill-119" sketch:type="MSShapeGroup"></path>
            <path d="M49,24 L13,24 C12.448,24 12,24.448 12,25 C12,25.552 12.448,26 13,26 L49,26 C49.552,26 50,25.552 50,25 C50,24.448 49.552,24 49,24" id="Fill-120" sketch:type="MSShapeGroup"></path>
        </g>
    </g>
</svg>