<?xml version="1.0" encoding="UTF-8" standalone="no"?>
<svg width="34px" height="58px" viewBox="0 0 34 58" version="1.1" xmlns="http://www.w3.org/2000/svg" xmlns:xlink="http://www.w3.org/1999/xlink" xmlns:sketch="http://www.bohemiancoding.com/sketch/ns">
    <!-- Generator: Sketch 3.2.2 (9983) - http://www.bohemiancoding.com/sketch -->
    <title>70 - Iphone 6 (Flat)</title>
    <desc>Created with Sketch.</desc>
    <defs></defs>
    <g id="Page-1" stroke="none" stroke-width="1" fill="none" fill-rule="evenodd" sketch:type="MSPage">
        <g id="70---Iphone-6-(Flat)" sketch:type="MSLayerGroup" transform="translate(1.000000, 0.000000)">
            <path d="M30.038,58 L3.962,58 C2.326,58 1,56.674 1,55.038 L1,2.962 C1,1.326 2.326,0 3.962,0 L30.038,0 C31.674,0 33,1.326 33,2.962 L33,55.038 C33,56.674 31.674,58 30.038,58" id="Fill-140" fill="#E8EDEE" sketch:type="MSShapeGroup"></path>
            <path d="M1,6 L33,6 L33,50 L1,50 L1,6 Z" id="Fill-1355" fill="#38454F" sketch:type="MSShapeGroup"></path>
            <path d="M21,4 L16,4 C15.448,4 15,3.553 15,3 C15,2.447 15.448,2 16,2 L21,2 C21.552,2 22,2.447 22,3 C22,3.553 21.552,4 21,4" id="Fill-1356" fill="#38454F" sketch:type="MSShapeGroup"></path>
            <path d="M13,4 L12,4 C11.448,4 11,3.553 11,3 C11,2.447 11.448,2 12,2 L13,2 C13.552,2 14,2.447 14,3 C14,3.553 13.552,4 13,4" id="Fill-1357" fill="#38454F" sketch:type="MSShapeGroup"></path>
            <path d="M20,54 C20,55.657 18.657,57 17,57 C15.343,57 14,55.657 14,54 C14,52.343 15.343,51 17,51 C18.657,51 20,52.343 20,54" id="Fill-1358" fill="#B0B6BB" sketch:type="MSShapeGroup"></path>
            <path d="M4,14 C4.256,14 4.512,13.902 4.707,13.707 L8.707,9.707 C9.098,9.316 9.098,8.684 8.707,8.293 C8.316,7.902 7.684,7.902 7.293,8.293 L3.293,12.293 C2.902,12.684 2.902,13.316 3.293,13.707 C3.488,13.902 3.744,14 4,14" id="Fill-1359" fill="#546A79" sketch:type="MSShapeGroup"></path>
            <path d="M4,19 C4.256,19 4.512,18.902 4.707,18.707 L6.707,16.707 C7.098,16.316 7.098,15.684 6.707,15.293 C6.316,14.902 5.684,14.902 5.293,15.293 L3.293,17.293 C2.902,17.684 2.902,18.316 3.293,18.707 C3.488,18.902 3.744,19 4,19" id="Fill-1360" fill="#546A79" sketch:type="MSShapeGroup"></path>
            <path d="M7.29,13.29 C7.11,13.48 7,13.74 7,14 C7,14.26 7.11,14.52 7.29,14.71 C7.48,14.89 7.74,15 8,15 C8.26,15 8.52,14.89 8.71,14.71 C8.89,14.52 9,14.26 9,14 C9,13.73 8.89,13.48 8.71,13.29 C8.34,12.92 7.67,12.92 7.29,13.29" id="Fill-1361" fill="#546A79" sketch:type="MSShapeGroup"></path>
            <path d="M9.293,12.707 C9.488,12.902 9.744,13 10,13 C10.256,13 10.512,12.902 10.707,12.707 L13.707,9.707 C14.098,9.316 14.098,8.684 13.707,8.293 C13.316,7.902 12.684,7.902 12.293,8.293 L9.293,11.293 C8.902,11.684 8.902,12.316 9.293,12.707" id="Fill-1362" fill="#546A79" sketch:type="MSShapeGroup"></path>
            <path d="M12.293,13.293 L3.293,22.293 C2.902,22.684 2.902,23.316 3.293,23.707 C3.488,23.902 3.744,24 4,24 C4.256,24 4.512,23.902 4.707,23.707 L13.707,14.707 C14.098,14.316 14.098,13.684 13.707,13.293 C13.316,12.902 12.684,12.902 12.293,13.293" id="Fill-1363" fill="#546A79" sketch:type="MSShapeGroup"></path>
            <path d="M14.29,11.29 C14.11,11.48 14,11.73 14,12 C14,12.26 14.11,12.52 14.29,12.71 C14.48,12.89 14.74,13 15,13 C15.26,13 15.52,12.89 15.71,12.71 C15.89,12.52 16,12.26 16,12 C16,11.73 15.89,11.48 15.71,11.3 C15.34,10.92 14.66,10.92 14.29,11.29" id="Fill-1364" fill="#546A79" sketch:type="MSShapeGroup"></path>
            <path d="M18.707,8.293 C18.316,7.902 17.684,7.902 17.293,8.293 L16.293,9.293 C15.902,9.684 15.902,10.316 16.293,10.707 C16.488,10.902 16.744,11 17,11 C17.256,11 17.512,10.902 17.707,10.707 L18.707,9.707 C19.098,9.316 19.098,8.684 18.707,8.293" id="Fill-1365" fill="#546A79" sketch:type="MSShapeGroup"></path>
            <path d="M0,9 L0,10 M0,13 L0,14 M0,17 L0,18" id="Stroke-1366" stroke="#B0B6BB" stroke-width="2" stroke-linecap="round" sketch:type="MSShapeGroup"></path>
        </g>
    </g>
</svg>