<?xml version="1.0" encoding="UTF-8" standalone="no"?>
<svg width="58px" height="56px" viewBox="0 0 58 56" version="1.1" xmlns="http://www.w3.org/2000/svg" xmlns:xlink="http://www.w3.org/1999/xlink" xmlns:sketch="http://www.bohemiancoding.com/sketch/ns">
    <!-- Generator: Sketch 3.2.2 (9983) - http://www.bohemiancoding.com/sketch -->
    <title>81 - Chat (Flat)</title>
    <desc>Created with Sketch.</desc>
    <defs></defs>
    <g id="Page-1" stroke="none" stroke-width="1" fill="none" fill-rule="evenodd" sketch:type="MSPage">
        <g id="81---Chat-(Flat)" sketch:type="MSLayerGroup">
            <path d="M48,18.929 L48,40.071 C48,42.793 45.793,45 43.071,45 L22,45 L12,56 L12,45 L4.929,45 C2.207,45 0,42.793 0,40.071 L0,18.929 C0,16.207 2.207,14 4.929,14 L43.071,14 C45.793,14 48,16.207 48,18.929" id="Fill-368" fill="#4DC95B" sketch:type="MSShapeGroup"></path>
            <path d="M53.071,0 L14.929,0 C12.207,0 10,2.207 10,4.93 L10,14 L43.071,14 C45.793,14 48,16.207 48,18.93 L48,31 L53.071,31 C55.793,31 58,28.793 58,26.07 L58,4.93 C58,2.207 55.793,0 53.071,0" id="Fill-381" fill="#0F81E0" sketch:type="MSShapeGroup"></path>
        </g>
    </g>
</svg>